<svg viewBox="0 0 180 78" fill="none" xmlns="http://www.w3.org/2000/svg">
     <path d="M116.678 14.4009C114.955 13.3345 112.993 12.8027 110.8 12.8027C108.824 12.8027 107.217 13.1952 105.98 13.9772C104.74 14.7621 103.745 15.6693 102.994 16.7044V2.83252H96.9739V36.696H102.334L102.994 33.4968C103.81 34.6883 104.877 35.6125 106.193 36.2723C107.51 36.932 109.046 37.2591 110.803 37.2591C112.998 37.2591 114.958 36.733 116.681 35.6836C118.404 34.6343 119.769 33.1897 120.773 31.3554C121.777 29.5212 122.278 27.4282 122.278 25.0764C122.278 22.7246 121.774 20.6259 120.773 18.7746C119.769 16.9262 118.404 15.4673 116.681 14.4009H116.678ZM114.281 30.0615C113.027 31.3469 111.443 31.9896 109.532 31.9896C107.621 31.9896 105.997 31.3384 104.757 30.0388C103.517 28.7392 102.9 27.0699 102.9 25.0309C102.9 22.9919 103.52 21.3226 104.757 20.0231C105.994 18.7235 107.587 18.0722 109.532 18.0722C111.477 18.0722 113.027 18.732 114.281 20.0486C115.535 21.3653 116.164 23.0431 116.164 25.0821C116.164 27.1211 115.535 28.7818 114.281 30.0672V30.0615Z" fill="#11092B" />
     <path d="M131.696 13.3657H125.676V36.6931H131.696V13.3657Z" fill="#11092B" />
     <path d="M151 23.7853C149.635 23.3303 148.139 22.9151 146.509 22.5398C145.005 22.1957 143.796 21.8175 142.886 21.4108C141.976 21.0041 141.521 20.4553 141.521 19.7643C141.521 19.0732 141.828 18.5585 142.44 18.1177C143.051 17.6798 143.921 17.458 145.05 17.458C147.308 17.458 148.608 18.3196 148.955 20.0458H154.645C154.332 17.7878 153.351 16.0162 151.705 14.7308C150.058 13.4454 147.854 12.8027 145.096 12.8027C142.116 12.8027 139.804 13.508 138.16 14.9185C136.513 16.329 135.692 18.0694 135.692 20.1396C135.692 21.2686 135.959 22.2184 136.491 22.9862C137.022 23.7541 137.722 24.3825 138.584 24.8688C139.445 25.3551 140.395 25.7561 141.43 26.0689C142.465 26.3817 143.483 26.649 144.487 26.868C146.054 27.2121 147.277 27.5647 148.156 27.9259C149.034 28.287 149.472 28.9695 149.472 29.9705C149.472 30.6615 149.165 31.273 148.554 31.8047C147.942 32.3394 146.978 32.6038 145.662 32.6038C144.345 32.6038 143.27 32.2825 142.44 31.6398C141.609 30.9971 141.1 30.2208 140.913 29.3108H134.844C135.032 30.8805 135.598 32.2597 136.536 33.4484C137.477 34.64 138.732 35.5727 140.298 36.2467C141.865 36.9207 143.685 37.2591 145.753 37.2591C147.82 37.2591 149.498 36.9292 150.974 36.2723C152.447 35.6125 153.576 34.7054 154.361 33.5451C155.143 32.3849 155.521 31.0853 155.49 29.6406C155.49 27.9799 155.083 26.7002 154.267 25.8073C153.451 24.9143 152.362 24.2403 151 23.7853Z" fill="#11092B" />
     <path d="M173.809 23.7853C172.444 23.3303 170.949 22.9151 169.319 22.5398C167.815 22.1957 166.606 21.8175 165.696 21.4108C164.786 21.0041 164.331 20.4553 164.331 19.7643C164.331 19.0732 164.638 18.5585 165.25 18.1177C165.861 17.6798 166.731 17.458 167.86 17.458C170.118 17.458 171.418 18.3196 171.765 20.0458H177.455C177.142 17.7878 176.161 16.0162 174.515 14.7308C172.868 13.4454 170.664 12.8027 167.906 12.8027C164.925 12.8027 162.613 13.508 160.97 14.9185C159.323 16.329 158.501 18.0694 158.501 20.1396C158.501 21.2686 158.769 22.2184 159.3 22.9862C159.832 23.7541 160.532 24.3825 161.393 24.8688C162.255 25.3551 163.205 25.7561 164.24 26.0689C165.275 26.3817 166.293 26.649 167.297 26.868C168.864 27.2121 170.087 27.5647 170.966 27.9259C171.844 28.287 172.282 28.9695 172.282 29.9705C172.282 30.6615 171.975 31.273 171.364 31.8047C170.752 32.3394 169.788 32.6038 168.472 32.6038C167.155 32.6038 166.08 32.2825 165.25 31.6398C164.419 30.9971 163.91 30.2208 163.723 29.3108H157.654C157.842 30.8805 158.408 32.2597 159.346 33.4484C160.287 34.64 161.541 35.5727 163.108 36.2467C164.675 36.9207 166.495 37.2591 168.563 37.2591C170.63 37.2591 172.308 36.9292 173.784 36.2723C175.257 35.6125 176.386 34.7054 177.171 33.5451C177.953 32.3849 178.331 31.0853 178.3 29.6406C178.3 27.9799 177.893 26.7002 177.077 25.8073C176.261 24.9143 175.171 24.2403 173.809 23.7853Z" fill="#11092B" />
     <path d="M81.5493 12.7686C74.7868 12.7686 69.287 18.2684 69.287 25.0308C69.287 31.7933 74.7868 37.2931 81.5493 37.2931C88.3117 37.2931 93.8116 31.7933 93.8116 25.0308C93.8116 18.2684 88.3117 12.7686 81.5493 12.7686ZM81.5493 31.6255C77.915 31.6255 74.9574 28.668 74.9574 25.0337C74.9574 21.3994 77.915 18.439 81.5493 18.439C85.1836 18.439 88.144 21.3965 88.144 25.0337C88.144 28.6709 85.1865 31.6255 81.5493 31.6255Z" fill="#11092B" />
     <path d="M54.4852 12.7686C47.7227 12.7686 42.2229 18.2684 42.2229 25.0308C42.2229 31.7933 47.7227 37.2931 54.4852 37.2931C61.2477 37.2931 66.7475 31.7933 66.7475 25.0308C66.7475 18.2684 61.2477 12.7686 54.4852 12.7686ZM54.4852 31.6255C50.8509 31.6255 47.8905 28.668 47.8905 25.0337C47.8905 21.3994 50.848 18.439 54.4852 18.439C58.1224 18.439 61.077 21.3965 61.077 25.0337C61.077 28.6709 58.1195 31.6255 54.4852 31.6255Z" fill="#11092B" />
     <path d="M128.685 2.83252C126.799 2.83252 125.272 4.35962 125.272 6.24503C125.272 8.13044 126.799 9.65754 128.685 9.65754C130.57 9.65754 132.097 8.13044 132.097 6.24503C132.097 4.35962 130.57 2.83252 128.685 2.83252Z" fill="#11092B" />
     <path d="M40.9661 36.7048L35.8473 31.586C38.3186 28.2873 39.7831 24.1923 39.7831 19.7645C39.7803 8.8644 30.9134 -0.00244141 20.0161 -0.00244141C9.11883 -0.00244141 0.249146 8.8644 0.249146 19.7645C0.249146 30.6647 9.11599 39.5315 20.0161 39.5315C24.4467 39.5315 28.5389 38.067 31.8376 35.5957L36.9564 40.7145L40.9661 36.7048ZM5.9196 19.7645C5.9196 11.9925 12.2441 5.66802 20.0161 5.66802C27.7881 5.66802 34.1126 11.9925 34.1126 19.7645C34.1126 27.5365 27.7881 33.8611 20.0161 33.8611C12.2441 33.8611 5.9196 27.5365 5.9196 19.7645Z" fill="#11092B" />
     <path d="M20.0162 10.5366C14.9287 10.5366 10.791 14.6743 10.791 19.7618C10.791 22.3041 11.8261 24.6132 13.4954 26.2825L17.5023 22.2757C16.8596 21.633 16.4586 20.7429 16.4586 19.7618C16.4586 17.7996 18.054 16.2042 20.0162 16.2042C21.9784 16.2042 23.5737 17.7996 23.5737 19.7618C23.5737 20.7429 23.1756 21.6301 22.5301 22.2757L26.5369 26.2825C28.2062 24.6132 29.2413 22.3041 29.2413 19.7618C29.2413 14.6743 25.1037 10.5366 20.0162 10.5366Z" fill="#884BEF" />
     <path d="M58.8141 56.168C57.8248 56.168 56.9475 55.9533 56.1821 55.524C55.4261 55.0853 54.8335 54.488 54.4041 53.732C53.9748 52.9667 53.7601 52.094 53.7601 51.114C53.7601 50.1153 53.9748 49.238 54.4041 48.482C54.8335 47.7167 55.4215 47.1193 56.1681 46.69C56.9241 46.2607 57.7921 46.046 58.7721 46.046C59.7615 46.046 60.6295 46.2653 61.3761 46.704C62.1321 47.1333 62.7248 47.7307 63.1541 48.496C63.5835 49.252 63.7981 50.1247 63.7981 51.114C63.7981 52.094 63.5835 52.9667 63.1541 53.732C62.7341 54.488 62.1461 55.0853 61.3901 55.524C60.6435 55.9533 59.7848 56.168 58.8141 56.168ZM58.8141 54.418C59.4115 54.418 59.9341 54.278 60.3821 53.998C60.8395 53.7087 61.1941 53.3167 61.4461 52.822C61.7075 52.3273 61.8381 51.758 61.8381 51.114C61.8381 50.4607 61.7075 49.8867 61.4461 49.392C61.1848 48.8973 60.8255 48.51 60.3681 48.23C59.9108 47.9407 59.3788 47.796 58.7721 47.796C58.1841 47.796 57.6568 47.9407 57.1901 48.23C56.7328 48.51 56.3735 48.8973 56.1121 49.392C55.8508 49.8867 55.7201 50.4607 55.7201 51.114C55.7201 51.758 55.8508 52.3273 56.1121 52.822C56.3735 53.3167 56.7375 53.7087 57.2041 53.998C57.6708 54.278 58.2075 54.418 58.8141 54.418ZM70.3937 56V46.2H74.0337C74.7243 46.2 75.3357 46.3353 75.8677 46.606C76.3997 46.8767 76.815 47.25 77.1137 47.726C77.4123 48.1927 77.5617 48.7387 77.5617 49.364C77.5617 49.98 77.403 50.5307 77.0857 51.016C76.7777 51.492 76.353 51.8653 75.8117 52.136C75.2703 52.3973 74.6543 52.528 73.9637 52.528H72.3117V56H70.3937ZM75.7837 56L73.5157 52.066L74.9857 51.016L77.9537 56H75.7837ZM72.3117 50.778H74.0477C74.337 50.778 74.5937 50.7173 74.8177 50.596C75.051 50.4747 75.233 50.3067 75.3637 50.092C75.5037 49.8773 75.5737 49.6347 75.5737 49.364C75.5737 48.944 75.4197 48.6033 75.1117 48.342C74.813 48.0807 74.4257 47.95 73.9497 47.95H72.3117V50.778ZM84.4571 56V46.2H86.3751V56H84.4571ZM98.094 56.168C97.0953 56.168 96.2086 55.9533 95.434 55.524C94.6686 55.0853 94.0666 54.488 93.628 53.732C93.1893 52.9667 92.97 52.0893 92.97 51.1C92.97 50.1107 93.1893 49.238 93.628 48.482C94.0666 47.7167 94.6686 47.1193 95.434 46.69C96.2086 46.2513 97.0953 46.032 98.094 46.032C98.6913 46.032 99.242 46.1207 99.746 46.298C100.25 46.4753 100.693 46.7227 101.076 47.04C101.468 47.348 101.795 47.7027 102.056 48.104L100.488 49.084C100.329 48.832 100.119 48.608 99.858 48.412C99.606 48.216 99.326 48.062 99.018 47.95C98.71 47.838 98.402 47.782 98.094 47.782C97.478 47.782 96.932 47.9267 96.456 48.216C95.98 48.496 95.6066 48.8833 95.336 49.378C95.0653 49.8727 94.93 50.4467 94.93 51.1C94.93 51.744 95.0606 52.318 95.322 52.822C95.5926 53.326 95.9706 53.7227 96.456 54.012C96.9413 54.292 97.5013 54.432 98.136 54.432C98.6306 54.432 99.0693 54.334 99.452 54.138C99.844 53.942 100.152 53.6667 100.376 53.312C100.6 52.9573 100.712 52.5467 100.712 52.08L102.532 51.8C102.532 52.724 102.341 53.5127 101.958 54.166C101.585 54.8193 101.062 55.3187 100.39 55.664C99.7273 56 98.962 56.168 98.094 56.168ZM98.416 52.248V50.75H102.532V51.94L101.496 52.248H98.416ZM108.879 56V46.2H110.797V56H108.879ZM117.966 56V46.2H119.968L124.756 52.78V46.2H126.66V56H124.756L119.884 49.294V56H117.966Z" fill="#11092B" />
</svg>