<svg width="162" height="37" viewBox="0 0 162 37" fill="none" xmlns="http://www.w3.org/2000/svg">
<path d="M105.01 13.1394C103.459 12.1796 101.693 11.701 99.7202 11.701C97.9414 11.701 96.4954 12.0542 95.382 12.758C94.2661 13.4644 93.3703 14.2808 92.6947 15.2125V2.72778H87.2765V33.2049H92.1009L92.6947 30.3256C93.4292 31.398 94.389 32.2298 95.574 32.8236C96.759 33.4174 98.141 33.7117 99.7227 33.7117C101.699 33.7117 103.462 33.2382 105.013 32.2938C106.564 31.3494 107.792 30.0492 108.696 28.3984C109.599 26.7476 110.05 24.8639 110.05 22.7473C110.05 20.6307 109.597 18.7418 108.696 17.0757C107.792 15.4121 106.564 14.0991 105.013 13.1394H105.01ZM102.853 27.2339C101.724 28.3907 100.299 28.9691 98.5787 28.9691C96.8588 28.9691 95.3974 28.383 94.2815 27.2134C93.1656 26.0438 92.6102 24.5414 92.6102 22.7063C92.6102 20.8713 93.1682 19.3689 94.2815 18.1993C95.3948 17.0296 96.8281 16.4435 98.5787 16.4435C100.329 16.4435 101.724 17.0373 102.853 18.2223C103.982 19.4073 104.547 20.9173 104.547 22.7524C104.547 24.5875 103.982 26.0822 102.853 27.239V27.2339Z" fill="white"/>
<path d="M118.527 12.2078H113.108V33.2024H118.527V12.2078Z" fill="white"/>
<path d="M135.9 21.5853C134.671 21.1758 133.325 20.8021 131.858 20.4643C130.504 20.1546 129.417 19.8142 128.598 19.4482C127.779 19.0822 127.369 18.5882 127.369 17.9663C127.369 17.3444 127.646 16.8811 128.196 16.4844C128.746 16.0903 129.529 15.8906 130.545 15.8906C132.577 15.8906 133.747 16.6661 134.059 18.2197H139.181C138.899 16.1875 138.016 14.593 136.534 13.4362C135.052 12.2793 133.069 11.7009 130.586 11.7009C127.904 11.7009 125.823 12.3357 124.344 13.6051C122.862 14.8746 122.122 16.4409 122.122 18.3041C122.122 19.3202 122.363 20.175 122.842 20.8661C123.32 21.5571 123.95 22.1227 124.725 22.5604C125.501 22.998 126.356 23.3589 127.287 23.6405C128.219 23.922 129.135 24.1626 130.039 24.3596C131.449 24.6693 132.549 24.9867 133.34 25.3117C134.131 25.6368 134.525 26.251 134.525 27.1519C134.525 27.7739 134.249 28.3241 133.699 28.8027C133.148 29.2839 132.281 29.5219 131.096 29.5219C129.911 29.5219 128.943 29.2327 128.196 28.6543C127.448 28.0759 126.99 27.3772 126.821 26.5582H121.36C121.529 27.9709 122.038 29.2122 122.883 30.2821C123.73 31.3544 124.858 32.1939 126.269 32.8005C127.679 33.4071 129.317 33.7116 131.178 33.7116C133.038 33.7116 134.548 33.4147 135.877 32.8235C137.202 32.2297 138.218 31.4133 138.925 30.3691C139.629 29.3248 139.969 28.1552 139.941 26.855C139.941 25.3604 139.575 24.2086 138.84 23.405C138.106 22.6013 137.126 21.9948 135.9 21.5853Z" fill="white"/>
<path d="M156.428 21.5853C155.2 21.1758 153.854 20.8021 152.387 20.4643C151.033 20.1546 149.945 19.8142 149.126 19.4482C148.307 19.0822 147.898 18.5882 147.898 17.9663C147.898 17.3444 148.174 16.8811 148.725 16.4844C149.275 16.0903 150.058 15.8906 151.074 15.8906C153.106 15.8906 154.276 16.6661 154.588 18.2197H159.71C159.428 16.1875 158.545 14.593 157.063 13.4362C155.581 12.2793 153.598 11.7009 151.115 11.7009C148.433 11.7009 146.352 12.3357 144.873 13.6051C143.391 14.8746 142.651 16.4409 142.651 18.3041C142.651 19.3202 142.892 20.175 143.37 20.8661C143.849 21.5571 144.479 22.1227 145.254 22.5604C146.03 22.998 146.884 23.3589 147.816 23.6405C148.748 23.922 149.664 24.1626 150.567 24.3596C151.978 24.6693 153.078 24.9867 153.869 25.3117C154.66 25.6368 155.054 26.251 155.054 27.1519C155.054 27.7739 154.778 28.3241 154.227 28.8027C153.677 29.2839 152.809 29.5219 151.624 29.5219C150.439 29.5219 149.472 29.2327 148.725 28.6543C147.977 28.0759 147.519 27.3772 147.35 26.5582H141.889C142.057 27.9709 142.567 29.2122 143.411 30.2821C144.259 31.3544 145.387 32.1939 146.797 32.8005C148.208 33.4071 149.846 33.7116 151.706 33.7116C153.567 33.7116 155.077 33.4147 156.405 32.8235C157.731 32.2297 158.747 31.4133 159.454 30.3691C160.157 29.3248 160.498 28.1552 160.47 26.855C160.47 25.3604 160.104 24.2086 159.369 23.405C158.635 22.6013 157.654 21.9948 156.428 21.5853Z" fill="white"/>
<path d="M73.3943 11.6702C67.3081 11.6702 62.3582 16.62 62.3582 22.7062C62.3582 28.7924 67.3081 33.7423 73.3943 33.7423C79.4805 33.7423 84.4304 28.7924 84.4304 22.7062C84.4304 16.62 79.4805 11.6702 73.3943 11.6702ZM73.3943 28.6414C70.1234 28.6414 67.4617 25.9797 67.4617 22.7088C67.4617 19.4379 70.1234 16.7736 73.3943 16.7736C76.6652 16.7736 79.3295 19.4353 79.3295 22.7088C79.3295 25.9822 76.6678 28.6414 73.3943 28.6414Z" fill="white"/>
<path d="M49.0367 11.6702C42.9505 11.6702 38.0006 16.62 38.0006 22.7062C38.0006 28.7924 42.9505 33.7423 49.0367 33.7423C55.1229 33.7423 60.0727 28.7924 60.0727 22.7062C60.0727 16.62 55.1229 11.6702 49.0367 11.6702ZM49.0367 28.6414C45.7658 28.6414 43.1015 25.9797 43.1015 22.7088C43.1015 19.4379 45.7632 16.7736 49.0367 16.7736C52.3101 16.7736 54.9693 19.4353 54.9693 22.7088C54.9693 25.9822 52.3076 28.6414 49.0367 28.6414Z" fill="white"/>
<path d="M115.816 2.72778C114.119 2.72778 112.745 4.10217 112.745 5.79904C112.745 7.49592 114.119 8.87031 115.816 8.87031C117.513 8.87031 118.887 7.49592 118.887 5.79904C118.887 4.10217 117.513 2.72778 115.816 2.72778Z" fill="white"/>
<path d="M36.8694 33.2126L32.2626 28.6057C34.4867 25.6368 35.8047 21.9513 35.8047 17.9663C35.8022 8.15619 27.822 0.176025 18.0145 0.176025C8.2069 0.176025 0.224182 8.15619 0.224182 17.9663C0.224182 27.7764 8.20434 35.7566 18.0145 35.7566C22.002 35.7566 25.6849 34.4385 28.6538 32.2144L33.2607 36.8213L36.8694 33.2126ZM5.32759 17.9663C5.32759 10.9715 11.0197 5.27944 18.0145 5.27944C25.0093 5.27944 30.7013 10.9715 30.7013 17.9663C30.7013 24.9611 25.0093 30.6532 18.0145 30.6532C11.0197 30.6532 5.32759 24.9611 5.32759 17.9663Z" fill="white"/>
<path d="M18.0145 9.66113C13.4358 9.66113 9.71185 13.385 9.71185 17.9638C9.71185 20.2519 10.6435 22.3301 12.1458 23.8324L15.752 20.2263C15.1736 19.6478 14.8127 18.8468 14.8127 17.9638C14.8127 16.1978 16.2485 14.762 18.0145 14.762C19.7805 14.762 21.2163 16.1978 21.2163 17.9638C21.2163 18.8468 20.858 19.6453 20.277 20.2263L23.8832 23.8324C25.3855 22.3301 26.3171 20.2519 26.3171 17.9638C26.3171 13.385 22.5932 9.66113 18.0145 9.66113Z" fill="#884BEF"/>
</svg>
